<svg width="24" height="24" viewBox="0 0 24 24" fill="none" xmlns="http://www.w3.org/2000/svg">
<path d="M3.83634 22.2397L13.043 13.87C13.3812 13.5625 13.1637 13 12.7067 13H3.5C3.22386 13 3 13.2239 3 13.5V21.8697C3 22.3038 3.51515 22.5317 3.83634 22.2397Z" fill="#D9D9D9"/>
<path d="M3.83634 1.76031L13.043 10.13C13.3812 10.4375 13.1637 11 12.7067 11H3.5C3.22386 11 3 10.7761 3 10.5V2.13028C3 1.6962 3.51515 1.46832 3.83634 1.76031Z" fill="#D9D9D9"/>
<path d="M18.5 2L21 6L16 6L18.5 2Z" fill="#D9D9D9"/>
<path d="M18.5 22L21 19L16 19L18.5 22Z" fill="#D9D9D9"/>
<rect x="19" y="6" width="13" height="1" transform="rotate(90 19 6)" fill="#D9D9D9"/>
</svg>
