<svg width="24" height="24" viewBox="0 0 24 24" fill="none" xmlns="http://www.w3.org/2000/svg">
<path d="M10.113 11.0841L2.66814 20.1834C2.40103 20.5098 2.63331 21 3.05512 21H10.5C10.7761 21 11 20.7761 11 20.5V11.4007C11 10.9308 10.4106 10.7204 10.113 11.0841Z" fill="#D9D9D9"/>
<path d="M13.887 11.0841L21.3319 20.1834C21.599 20.5098 21.3667 21 20.9449 21H13.5C13.2239 21 13 20.7761 13 20.5V11.4007C13 10.9308 13.5894 10.7204 13.887 11.0841Z" fill="#D9D9D9"/>
<path d="M2 5.5L6 3V8L2 5.5Z" fill="#D9D9D9"/>
<path d="M22 5.5L19 3V8L22 5.5Z" fill="#D9D9D9"/>
<rect x="6" y="5" width="13" height="1" fill="#D9D9D9"/>
</svg>
