<svg width="24" height="24" viewBox="0 0 24 24" fill="none" xmlns="http://www.w3.org/2000/svg">
<path d="M12 2C17.5228 2 22 6.47715 22 12C22 17.5228 17.5228 22 12 22C8.21663 22 4.92438 19.8987 3.22559 16.7998H6.2002V13.5996H3V16.3613C2.36003 15.0431 2 13.5638 2 12C2 10.4359 2.35979 8.95609 3 7.6377V10.4004H6.2002V7.2002H3.22559C4.92438 4.10125 8.21663 2 12 2ZM6.2002 16.7998V20H9.40039V16.7998H6.2002ZM9.40039 13.5996V16.7998H12.5996V13.5996H9.40039ZM6.2002 10.4004V13.5996H9.40039V10.4004H6.2002ZM12.5996 10.4004V13.5996H15.7998V10.4004H12.5996ZM9.40039 7.2002V10.4004H12.5996V7.2002H9.40039ZM6.2002 4V7.2002H9.40039V4H6.2002Z" fill="#D9D9D9"/>
<circle cx="12" cy="12" r="9.5" stroke="#D9D9D9"/>
</svg>
