<svg width="24" height="24" viewBox="0 0 24 24" fill="none" xmlns="http://www.w3.org/2000/svg">
<path d="M16 4C19.3137 4 22 6.68629 22 10V13C22 16.3137 19.3137 19 16 19H4C3.17384 19 2.46516 18.4989 2.16016 17.7842C4.94556 17.0503 7 14.5159 7 11.5C7 8.48402 4.94568 5.94864 2.16016 5.21484C2.46536 4.50059 3.17416 4 4 4H16Z" fill="white"/>
<path d="M4 4.5H16C19.0376 4.5 21.5 6.96243 21.5 10V13C21.5 16.0376 19.0376 18.5 16 18.5H4C3.17157 18.5 2.5 17.8284 2.5 17V6C2.5 5.17157 3.17157 4.5 4 4.5Z" stroke="white"/>
</svg>
