<svg width="24" height="24" viewBox="0 0 24 24" fill="none" xmlns="http://www.w3.org/2000/svg">
<path d="M14.8857 13.5926L8.18198 20.2963C7.59619 20.882 6.64645 20.882 6.06066 20.2963C5.47492 19.7105 5.47489 18.7607 6.06066 18.1749L12.7644 11.4712L14.8857 13.5926ZM16.1749 8.06068C16.7607 7.47491 17.7104 7.47494 18.2962 8.06068C18.882 8.64647 18.882 9.59622 18.2962 10.182L15.5928 12.8854L13.4715 10.7641L16.1749 8.06068Z" fill="#969696"/>
<path d="M4 8C6.4 8.26667 7.73333 9.6 8 12C8.26667 9.6 9.6 8.26667 12 8C9.6 7.73333 8.26667 6.4 8 4C7.73333 6.4 6.4 7.73333 4 8Z" fill="#969696"/>
<path d="M11 5C12.2 5.13333 12.8667 5.8 13 7C13.1333 5.8 13.8 5.13333 15 5C13.8 4.86667 13.1333 4.2 13 3C12.8667 4.2 12.2 4.86667 11 5Z" fill="#969696"/>
</svg>
