<svg width="24" height="24" viewBox="0 0 24 24" fill="none" xmlns="http://www.w3.org/2000/svg">
<path fill-rule="evenodd" clip-rule="evenodd" d="M14.1335 17.9972C13.9539 18.3648 13.7134 18.702 13.4079 19.0011C12.5693 19.8221 11.4378 20.1706 10.4226 20.3273C8.41183 20.6376 5.91492 20.3148 4.3503 20.1584C3.52634 20.0757 2.9253 19.3408 3.00752 18.5168C3.02618 18.3303 3.07998 18.1556 3.15889 17.9972H14.1335ZM11.8454 8.99333C11.7682 9.41523 11.7982 9.68054 11.8474 9.86442C11.9193 10.1329 12.0712 10.3975 12.3972 10.842C13.0559 11.7401 14.1827 13.0381 14.488 15.4797C14.5099 15.655 14.5244 15.8276 14.53 15.9972H11.5241C11.5206 15.9513 11.5178 15.9027 11.5114 15.8517C11.3167 14.2942 10.6935 13.5921 9.97725 12.6154C9.61593 12.1227 9.17388 11.4803 8.94893 10.6398C8.80979 10.1199 8.76851 9.576 8.821 8.99333H11.8454ZM11.7224 4.89665C13.2977 4.11721 15.627 3.75869 19.1745 4.17595C19.9972 4.27273 20.5856 5.01834 20.489 5.84099C20.4288 6.35119 20.1196 6.77096 19.697 6.99333H9.4294C9.80207 6.36373 10.456 5.52339 11.7224 4.89665Z" fill="#969696"/>
</svg>
