<svg width="293" height="292" viewBox="0 0 293 292" fill="none" xmlns="http://www.w3.org/2000/svg">
<path fill-rule="evenodd" clip-rule="evenodd" d="M152.027 0.0781841C140.666 0.759017 130.606 2.24722 120.979 4.67097C107.358 8.10012 97.5827 11.5761 86.6221 16.8878C82.3253 18.9703 76.2601 22.3145 73.0646 24.3634C53.1037 37.1618 38.9937 50.8458 26.3711 69.6471C14.0203 88.0432 4.8091 111.91 1.50912 134.066C-0.928433 150.431 -0.415707 166.682 3.06619 183.413C5.66578 195.905 10.5503 208.884 16.7768 219.848C17.5211 221.158 18.335 222.637 18.5857 223.134C19.6295 225.205 22.4542 229.971 24.2216 232.643C30.714 242.458 39.3393 251.88 48.4426 259.101C55.8967 265.014 58.1225 266.633 64.1085 270.493C67.8618 272.914 74.549 276.493 79.5558 278.761C90.0794 283.527 100.015 286.721 111.765 289.115C116.568 290.094 124.11 291.118 130.144 291.611C135.037 292.011 147.654 292.01 152.438 291.609C162.462 290.77 170.038 289.535 178.402 287.375C183.272 286.117 189.244 284.247 192.846 282.851C202.755 279.012 210.521 275.182 218.384 270.259C233.398 260.859 247.636 247.984 259.504 233.077C267.783 222.677 275.297 211.055 280.672 200.337C282.178 197.334 282.514 196.498 283.466 193.39C287.765 179.361 290.955 164.26 292.11 152.471C292.854 144.876 292.828 137.469 292.034 130.779C291.222 123.94 289.493 115.661 288.179 112.312C284.794 103.691 280.569 95.628 276.047 89.1559C275.117 87.8259 274.328 86.7377 274.292 86.7377C274.188 86.7377 274.95 88.8182 275.748 90.7157C277.637 95.2065 278.926 100.383 279.73 106.704C280.133 109.88 280.222 119.347 279.89 123.877C279.641 127.28 279.025 133.028 278.886 133.255C278.853 133.307 278.747 134.887 278.65 136.765C277.833 152.612 273.793 166.985 265.501 183.55C261.266 192.009 255.768 200.767 249.161 209.577C242.327 218.69 234.228 227.543 226.385 234.473C225.618 235.151 224.954 235.749 224.909 235.803C224.863 235.856 223.51 236.984 221.902 238.31C208.227 249.583 194.318 257.394 178.074 262.925C171.318 265.226 164.229 266.62 155.149 267.435C151.154 267.793 139.98 267.934 135.716 267.68C117.518 266.595 100.098 262.394 84.0385 255.217C79.091 253.006 71.0545 248.25 66.0798 244.59C65.7186 244.324 65.0164 243.807 64.5193 243.441C53.1386 235.064 42.4557 223.252 35.6009 211.467C30.796 203.206 26.4229 192.172 24.0729 182.38C21.3928 171.212 20.3319 159.833 20.7874 147.144C21.0434 140.014 21.4944 135.503 22.6281 128.725C24.6548 116.61 28.6065 104.649 34.4369 92.9824C39.0595 83.7329 47.1498 72.0518 55.0885 63.1643C57.8173 60.1093 63.5215 54.3568 66.4913 51.6649C81.9682 37.6361 100.263 26.8445 119.9 20.1604C132.459 15.8854 146.281 13.2037 159.668 12.4443C163.98 12.1996 174.631 12.3414 178.649 12.6969C195.375 14.1765 211.017 18.4562 223.265 24.904C228.979 27.9118 233.304 30.8042 238.22 34.904C243.466 39.2802 246.165 42.0026 248.876 45.6544C251.597 49.3194 252.156 49.8066 252.526 48.8352C252.945 47.7317 250.844 43.9815 246.737 38.5059C243.331 33.9647 240.467 30.7635 236.696 27.2824C229.864 20.977 224.946 17.5938 216.114 13.1263C201.089 5.526 184.959 1.26073 166.984 0.134393C164.653 -0.0116995 154.183 -0.0509819 152.027 0.0781841Z" fill="black"/>
</svg>
