<svg width="436" height="442" viewBox="0 0 436 442" fill="none" xmlns="http://www.w3.org/2000/svg">
<path fill-rule="evenodd" clip-rule="evenodd" d="M318.211 0.302512C317.867 0.47802 317.352 0.669468 317.067 0.728135C316.782 0.786638 316.031 1.08112 315.399 1.38268C314.766 1.68406 313.837 2.11396 313.334 2.33795C312.358 2.77211 310.276 4.39375 304.224 9.43534C302.145 11.1669 298.152 14.4201 295.35 16.6647C292.548 18.9092 289.442 21.4207 288.448 22.2458C287.454 23.0709 285.494 24.697 284.093 25.8593C276.41 32.2338 271.121 37.0912 268.027 40.6148C267.254 41.4961 266.564 42.217 266.494 42.217C266.041 42.217 261.098 35.7329 258.1 31.2067C254.172 25.2767 252.159 21.8535 248.195 14.3625C245.308 8.90668 244.336 7.70704 242.801 7.70704C242.239 7.70704 241.866 7.60023 241.51 7.33729C240.881 6.87289 239.727 6.87437 238.806 7.34107C238.452 7.52036 237.903 7.72167 237.587 7.78872C237.27 7.8556 236.605 8.12264 236.108 8.38212C235.611 8.64161 234.649 9.10996 233.971 9.42285C233.294 9.73574 232.251 10.3949 231.654 10.8876C229.702 12.4979 224.834 18.0198 219.043 25.1906C216.827 27.9345 214.94 30.1708 212.903 32.4655C211.754 33.7593 209.97 35.7987 208.937 36.9973C207.905 38.1961 206.802 39.4707 206.488 39.8298L205.916 40.4828L205.277 39.9979C201.671 37.2604 194.118 30.5982 187.219 24.0694C178.597 15.9106 176.001 13.6112 173.646 12.0496C172.976 11.6057 171.819 10.632 171.074 9.88561L169.719 8.52871H168.821C168.135 8.52871 167.782 8.43208 167.319 8.11788C166.556 7.60056 165.866 7.59562 164.659 8.09898C164.142 8.31458 163.468 8.54465 163.162 8.61005C162.856 8.67562 162.268 8.94283 161.856 9.20412C161.444 9.46525 161.039 9.67904 160.955 9.67904C160.596 9.67904 158.751 10.5927 158.326 10.9811C157.312 11.9072 156.808 13.2551 156.234 16.581C155.825 18.9474 155.281 20.9604 154.456 23.1642C154.102 24.1078 153.254 26.5807 152.57 28.6595C149.137 39.095 147.107 47.7347 146.205 55.7505L146.014 57.4521L144.842 57.09C141.45 56.0416 137.728 54.5862 134.082 52.8824C133.327 52.5298 132.674 52.2414 132.631 52.2414C132.588 52.2414 129.064 50.5065 124.8 48.3863C117.436 44.7238 114.224 43.0834 111.033 41.3549C108.984 40.2445 99.297 35.4215 98.1283 34.9297C97.5817 34.6996 96.7714 34.4252 96.3275 34.32C95.8838 34.2147 94.9317 33.9481 94.2117 33.7274C92.7699 33.2854 92.0936 33.3112 90.8873 33.8543C90.5082 34.025 90.1097 34.1647 90.002 34.1647C89.8285 34.1647 87.998 34.9836 86.4074 35.7727C85.5502 36.198 85.1995 36.9439 85.1225 38.5054C85.063 39.7121 85.1282 40.0756 85.8326 42.4635C87.8703 49.3724 88.6684 53.2939 91.167 68.6747C95.0434 92.538 96.0334 98.0804 96.9341 100.966C97.1033 101.509 97.2429 102.008 97.244 102.075C97.2452 102.143 96.6095 102.199 95.8312 102.199C95.0531 102.199 92.1137 102.381 89.299 102.604C83.3764 103.074 75.6023 103.567 68.57 103.919C65.8585 104.055 61.3475 104.28 58.5456 104.42C48.6069 104.918 37.0285 106.036 35.7179 106.625C35.3483 106.791 34.7872 106.981 34.4708 107.046C34.1545 107.112 33.7847 107.255 33.6491 107.365C33.5136 107.475 32.7631 107.845 31.9813 108.187C30.7293 108.735 30.5263 108.884 30.2774 109.436C29.5627 111.021 30.1549 112.409 33.2186 116.331C35.6939 119.5 35.6322 119.413 39.6455 125.37C47.9843 137.745 51.3515 142.848 53.0388 145.665C54.9975 148.935 57.3131 153.336 57.3131 153.79C57.3131 153.96 56.9176 154.225 56.2039 154.533C53.999 155.484 46.5048 159.188 44.5773 160.281C36.3376 164.95 28.8542 170.533 20.7419 178.061C16.8234 181.697 10.6489 188.36 7.97009 191.843C7.41398 192.566 6.4012 193.883 5.71938 194.771C1.51442 200.244 -0.289636 203.75 0.0375513 205.811C0.219633 206.958 1.2081 208.706 2.59211 210.33C3.32405 211.189 4.21408 212.237 4.57003 212.66C5.00124 213.172 5.60796 213.624 6.38871 214.015C7.03306 214.337 7.79146 214.742 8.07427 214.914C8.35693 215.086 9.47571 215.538 10.5603 215.918C15.6374 217.696 16.9036 218.413 24.4465 223.784C28.5234 226.688 33.9193 230.738 37.1823 233.344C41.0722 236.451 46.1063 240.827 45.9518 240.968C45.9189 240.998 45.2705 241.333 44.5111 241.713C36.126 245.909 19.5763 259.631 8.5441 271.535C4.68046 275.704 3.96068 276.575 3.74935 277.336C3.43482 278.469 3.51041 279.103 4.12699 280.5C4.34177 280.987 5.4668 282.48 6.24015 283.304C6.54236 283.626 7.06642 284.267 7.40494 284.728C8.00312 285.543 8.71534 286.088 9.51301 286.341C9.72747 286.409 10.1922 286.647 10.5458 286.87C10.8993 287.093 11.7128 287.454 12.3535 287.673C13.8383 288.178 20.0688 289.846 26.0898 291.349C38.7537 294.511 45.6514 296.524 52.3831 299.024C57.5933 300.958 60.472 302.369 63.3485 304.396L64.5359 305.233L64.5399 306.269C64.542 306.839 64.3895 308.059 64.201 308.981C63.7382 311.242 61.9533 318.24 60.7346 322.57C57.5125 334.018 56.1395 339.21 54.4556 346.316C51.96 356.846 50.7354 364.802 50.7423 370.441C50.7466 373.944 51.5436 376.066 53.8718 378.772C54.6105 379.63 55.4388 380.644 55.7124 381.025C56.2649 381.794 57.0601 382.399 58.0526 382.805C58.4142 382.953 59.0428 383.282 59.4495 383.536C60.4823 384.18 61.0785 384.27 62.1878 383.948C63.5485 383.552 65.4909 382.531 69.3916 380.161C75.4657 376.472 78.3072 374.916 82.4561 373.01C84.8451 371.912 92.1978 368.913 92.2899 368.999C92.3206 369.027 92.7041 372.957 93.1423 377.732C94.9683 397.635 95.6505 402.456 97.5909 409.173C99.2804 415.023 101.353 419.096 104.458 422.667C105.056 423.355 105.878 424.346 106.284 424.869C107.376 426.272 108.898 427.399 111.297 428.58C113.309 429.572 113.5 429.633 114.583 429.631C116.335 429.628 117.781 428.892 121.814 425.95C124.935 423.673 128.631 421.215 131.564 419.467C133.615 418.244 150.079 409.046 154.927 406.413C157.063 405.253 158.8 402.977 159.589 400.299C159.736 399.802 159.991 398.929 160.156 398.359L160.456 397.322L163.571 400.659C167.454 404.821 172.726 410.593 176.377 414.678C184.06 423.276 195.354 435.139 198.468 437.883C199.957 439.194 202.681 441.062 203.875 441.59C206.055 442.554 209.265 440.608 211.758 436.811C214.287 432.96 216.102 428.539 219.53 417.883C223.415 405.807 225.499 401.123 228.031 398.772L228.879 397.984L229.416 398.393C229.986 398.828 234.983 403.969 239.734 409.008C241.31 410.68 243.523 413.01 244.653 414.186C245.783 415.361 248.815 418.535 251.391 421.24C259.518 429.771 264.582 434.232 270.289 437.887C275.831 441.436 279.024 442.087 281.667 440.205C282.356 439.714 283.38 438.069 283.758 436.844C283.933 436.278 284.219 435.534 284.393 435.189C284.568 434.845 284.876 433.934 285.079 433.166C285.862 430.195 286.05 428.735 286.22 424.292C286.506 416.824 286.707 415.227 288.199 408.55C291.11 395.519 292.05 391.779 292.54 391.289C292.756 391.073 292.94 391.064 293.825 391.229C295.447 391.53 297.564 392.665 300.198 394.647C301.508 395.633 303.949 397.431 305.621 398.643C307.293 399.854 309.031 401.119 309.483 401.452C315.377 405.8 326.77 413.068 334.133 417.176C344.787 423.122 354.521 426.815 358.859 426.557C360.163 426.48 361.238 426.103 362.359 425.328C363.165 424.772 364.221 423.178 364.557 422.011C364.703 421.503 365.004 420.727 365.225 420.287C365.447 419.847 365.731 419.034 365.857 418.48C365.982 417.926 366.189 417.102 366.316 416.651C366.443 416.199 366.669 414.978 366.818 413.939C367.049 412.326 367.064 411.579 366.92 408.845C366.703 404.73 366.491 403.041 365.109 394.466C362.363 377.414 361.907 372.884 361.906 362.64C361.905 358.964 361.942 355.924 361.987 355.884C362.032 355.844 362.513 355.87 363.055 355.941C363.598 356.012 365.742 356.122 367.821 356.186C377.191 356.472 388.715 355.141 400.583 352.402C402.82 351.886 409.085 350.205 413.789 348.859C419.574 347.203 420.343 346.694 421.227 343.933C421.386 343.436 421.661 342.789 421.837 342.496C422.03 342.177 422.139 341.742 422.111 341.411C422.083 341.092 422.183 340.677 422.348 340.425C422.747 339.816 423.015 337.563 422.906 335.736C422.758 333.248 422.109 332.054 415.269 321.681C407.415 309.769 404.493 305.127 400.568 298.331C396.684 291.604 390.741 280.047 391.11 279.939C393.883 279.13 398.931 277.141 402.158 275.586C407.806 272.864 415.877 267.591 421.147 263.181C425.485 259.55 431.693 253.463 432.877 251.68C433.227 251.153 433.64 250.304 433.795 249.794C433.95 249.284 434.199 248.63 434.349 248.34C434.5 248.051 434.623 247.586 434.623 247.307C434.623 247.029 434.738 246.624 434.88 246.408C435.4 245.614 435.702 242.238 435.39 240.695C435.207 239.789 434.595 239.179 433.007 238.321C429.323 236.33 427.199 235.097 423.859 233.01C418.508 229.666 415.058 227.643 411.534 225.782C410.63 225.305 409.04 224.453 408.001 223.89C406.961 223.327 404.336 221.959 402.167 220.85C399.997 219.742 398.088 218.741 397.923 218.626C397.644 218.431 397.661 218.39 398.17 218.01C398.47 217.787 400.897 215.995 403.563 214.028C410.374 209.004 411.14 208.359 415.158 204.25C418.348 200.988 422.136 196.591 427.334 190.117C429.402 187.54 429.564 187.286 429.499 186.718C429.381 185.689 429.331 185.712 415.149 193.205C407.554 197.218 405.445 198.581 398.305 204.093C391.946 209 383.683 215.026 382.761 215.426C381.119 216.14 381.267 218.566 383.113 221.187C383.459 221.678 383.911 222.339 384.117 222.655C385.147 224.233 385.536 224.625 387.587 226.146C391.968 229.395 393.91 230.577 403.728 235.971C411.461 240.22 414.077 241.723 418.401 244.402L421.324 246.213L420.539 247.046C415.038 252.888 410.583 256.714 404.594 260.741C394.89 267.266 385.482 270.997 382.529 269.49C381.781 269.109 381.053 269.07 380.425 269.38C380.181 269.5 379.698 269.614 379.35 269.633C379.003 269.651 378.559 269.77 378.364 269.896C378.169 270.023 377.64 270.215 377.188 270.323C376.736 270.432 376.296 270.585 376.21 270.663C376.124 270.741 375.933 270.805 375.784 270.805C375.359 270.805 374.996 271.323 374.788 272.223C374.511 273.423 374.964 274.582 376.755 277.259C377.555 278.454 378.434 279.913 378.708 280.5C387.526 299.366 391.953 307.097 407.036 329.965C409.892 334.294 410.875 335.863 410.778 335.934C410.617 336.053 402.895 338.324 399.866 339.143C394.679 340.546 386.438 341.989 379.988 342.624C375.431 343.072 366.615 343.111 364.028 342.693L363.357 342.585L363.339 341.77C363.306 340.336 362.725 339.718 361.371 339.677C361.077 339.668 360.695 339.518 360.521 339.344C359.823 338.647 358.859 338.466 358.161 338.901C357.961 339.026 357.407 339.171 356.931 339.223C356.454 339.275 355.863 339.427 355.616 339.561C355.369 339.695 354.502 340.005 353.688 340.25C352.875 340.495 352.072 340.814 351.904 340.959C350.819 341.894 349.893 345.844 349.144 352.725C348.81 355.799 348.768 356.992 348.766 363.653C348.765 368.259 348.843 372.077 348.971 373.595C349.549 380.498 350.043 384.362 351.793 395.675C352.902 402.845 353.325 406.131 353.516 409.064L353.61 410.515L353.074 410.404C351.886 410.156 347.485 408.591 345.554 407.729C340.119 405.302 330.69 400.118 324.979 396.417C317.047 391.277 310.124 386.324 305.235 382.293C302.403 379.957 298.243 377.293 297.429 377.293C297.303 377.293 296.599 377.022 295.865 376.69C294.243 375.958 292.576 375.772 291.445 376.196C291.062 376.34 290.278 376.533 289.702 376.623C289.126 376.714 288.497 376.89 288.305 377.016C288.112 377.141 287.18 377.484 286.234 377.777C283.636 378.583 282.785 379.334 281.544 381.919C280.222 384.671 279.075 388.798 276.88 398.694C273.941 411.94 273.412 415.465 273.412 421.786V424.309L272.795 423.849C267.712 420.057 264.802 417.347 252.13 404.607C240.954 393.37 235.549 388.129 234.003 387.027C233.589 386.732 232.95 386.414 232.584 386.321C232.217 386.228 231.548 385.955 231.096 385.715C230.453 385.374 230.068 385.284 229.333 385.304C228.816 385.318 228.252 385.404 228.081 385.496C227.91 385.587 227.372 385.735 226.885 385.823C225.263 386.117 222.329 387.258 221.409 387.953C217.742 390.722 214.437 398.041 209.749 413.775C208.094 419.333 207.23 421.971 206.429 423.922C205.696 425.705 204.021 428.98 203.521 429.608L203.148 430.076L201.757 428.968C199.215 426.945 195.971 424.071 189.523 418.13C188.346 417.045 183.538 412.35 178.838 407.695C167.929 396.89 162.742 392.034 160.978 390.974C160.678 390.794 160.087 390.518 159.664 390.361C158.917 390.083 158.864 390.085 157.692 390.44C157.03 390.641 156.406 390.907 156.306 391.033C156.206 391.158 155.87 391.261 155.561 391.261C153.512 391.261 147.797 393.794 140.712 397.841C138.634 399.029 135.602 400.744 133.975 401.652C123.971 407.24 120.826 409.095 116.659 411.865L113.804 413.762L113.497 413.399C113.046 412.864 111.656 409.966 111.053 408.3C110.351 406.362 109.983 405.067 109.412 402.518C108.361 397.825 107.952 394.657 106.944 383.373C105.646 368.856 105.452 366.833 105.122 364.31C104.583 360.191 103.695 356.141 103.06 354.907C102.63 354.071 102.184 353.793 101.273 353.793C100.634 353.793 100.299 353.694 99.8755 353.382C99.2315 352.907 98.6356 352.865 97.775 353.233C97.4389 353.376 96.6833 353.659 96.0958 353.861C90.2574 355.871 84.6567 357.998 80.8128 359.666C75.1292 362.132 65.8406 366.855 63.5072 368.465C63.2535 368.64 62.9994 368.737 62.9424 368.68C62.7886 368.526 63.3226 364.67 63.8944 361.808C65.197 355.287 67.7182 345.401 71.0304 333.827C73.9029 323.788 73.8411 324.016 74.9581 319.365C77.5483 308.58 77.5574 302.696 74.989 299.234C74.0372 297.951 71.2825 295.38 69.7203 294.317C66.2555 291.958 63.1863 290.4 57.8883 288.31C51.5552 285.812 42.6454 283.186 28.8013 279.736C25.0052 278.789 21.8426 277.96 21.7734 277.891C21.7041 277.823 22.4436 277.029 23.4168 276.126C32.9257 267.304 40.7447 260.946 48.3354 255.86C51.4721 253.758 53.2692 252.77 54.3364 252.56C56.3232 252.168 57.2635 251.354 57.6533 249.688C57.7591 249.236 57.9882 248.442 58.1624 247.924C58.3747 247.293 58.4434 246.79 58.3708 246.403C58.2937 245.992 58.3422 245.703 58.5374 245.405C58.7484 245.083 58.8181 244.558 58.8372 243.146C58.8587 241.545 58.8033 241.125 58.4086 239.906C57.8163 238.075 56.668 235.976 55.3474 234.31C52.9613 231.299 45.4774 224.871 36.8536 218.426C25.5861 210.005 20.6926 206.776 16.6017 205.063C15.8573 204.751 15.2471 204.435 15.2459 204.361C15.2392 203.941 20.3459 198.043 23.788 194.496C36.3748 181.525 50.4113 171.74 64.3614 166.214C67.1312 165.116 67.1639 165.098 67.6535 164.384C68.1379 163.677 68.8544 161.044 68.8793 159.88C68.8906 159.355 69.0104 158.803 69.165 158.565C69.668 157.789 69.4902 153.803 68.912 152.896C68.7968 152.715 68.5711 152.16 68.4102 151.663C67.1616 147.802 64.2508 142.528 59.0682 134.737C56.9431 131.542 46.8778 116.758 46.4321 116.177C46.193 115.866 46.172 115.751 46.3372 115.66C46.9652 115.315 56.0221 113.917 63.8865 112.952C66.4624 112.636 70.2339 112.155 72.2675 111.883C74.3011 111.611 76.4826 111.321 77.1153 111.238C83.8734 110.353 90.6695 109.174 96.671 107.845C99.9457 107.12 100.269 106.987 100.685 106.195C101.524 104.597 101.717 104.08 101.74 103.372C101.762 102.729 101.708 102.587 101.396 102.448C101.192 102.359 101.026 102.207 101.026 102.112C101.026 102.016 100.917 101.091 100.783 100.055C100.649 99.0198 100.277 95.3255 99.955 91.8457C98.3446 74.4279 95.6626 48.5327 95.33 47.1881C95.2797 46.9847 95.2771 46.8184 95.3244 46.8184C95.4227 46.8184 104.724 51.901 107.168 53.2906C108.061 53.7981 108.816 54.2134 108.845 54.2134C108.875 54.2134 109.254 54.4222 109.687 54.6776C110.725 55.2894 116.609 58.454 119.513 59.9629C120.779 60.6202 122.332 61.4358 122.964 61.7753C125.599 63.1889 132.345 66.5609 134.72 67.6512C139.206 69.7108 145.82 72.1301 150.819 73.5398C151.677 73.782 152.528 74.0752 152.709 74.1914C152.889 74.3074 153.37 74.5337 153.777 74.6939C154.184 74.8543 154.944 75.2395 155.467 75.5501L156.417 76.1147L157.055 75.8271C158.359 75.239 159.234 73.8696 159.547 71.9259C159.636 71.3698 159.86 70.5654 160.044 70.1384C160.303 69.5345 160.338 69.288 160.2 69.0292C159.932 68.5299 159.983 68.0396 160.357 67.515C160.801 66.8909 160.959 64.1756 160.647 62.5096C159.857 58.2851 161.852 47.4327 165.552 35.8218C167.056 31.1056 168.203 27.1286 168.589 25.2937C168.769 24.4365 168.943 23.709 168.976 23.6768C169.058 23.5943 170.748 24.8429 172.018 25.9247C173.515 27.2001 174.225 27.8637 181.633 34.9165C185.247 38.3578 189.092 41.9814 190.177 42.9689C194.101 46.5408 201.355 52.7087 203.75 54.5095C204.961 55.4201 208.948 57.4627 209.771 57.5944C210.578 57.7234 211.584 57.2539 212.171 56.4744C212.575 55.9377 213.095 54.613 213.108 54.0844C213.13 53.2234 213.794 52.3219 217.553 48.0484C219.759 45.5403 222.193 42.7728 222.961 41.8984C224.677 39.945 227.26 36.8573 230.529 32.85C233.286 29.4702 239.16 22.5889 239.704 22.1008C239.896 21.9283 240.079 21.8174 240.109 21.8543C240.139 21.8915 240.742 23.0311 241.448 24.3869C244.788 30.7997 249.43 38.4735 253.029 43.5317C256.272 48.0898 262.97 56.2585 265.301 58.4984C266.306 59.4642 267.076 60.0479 267.748 60.3537C268.287 60.5992 268.913 60.9109 269.139 61.0467C270.487 61.8565 270.581 61.8739 271.357 61.4621C272.285 60.9701 272.834 60.1221 273.256 58.5319C273.723 56.7711 273.874 56.4064 274.581 55.328C277.917 50.2383 285.663 42.9518 301.184 30.3024C302.946 28.8659 305.572 26.7271 307.018 25.5492C310.282 22.8898 312.393 21.1155 314.045 19.6411C314.747 19.0148 315.349 18.5323 315.384 18.5688C315.418 18.6053 315.568 21.3344 315.716 24.6334C316.203 35.4549 316.698 41.4841 317.611 47.7222C318.669 54.946 319.207 56.7458 320.903 58.7325C321.442 59.3652 322.291 60.4084 322.788 61.051C323.629 62.138 323.822 62.2849 325.573 63.1728L327.454 64.1268L328.214 63.8367C328.631 63.6772 329.321 63.3092 329.745 63.0188C330.17 62.7285 330.861 62.2555 331.28 61.9678C332.455 61.1619 335.488 60.2461 340.624 59.1462C353.281 56.4353 367.576 52.5306 377.908 48.9614C379.75 48.325 381.319 47.8044 381.394 47.8044C381.468 47.8044 380.66 48.9692 379.596 50.3926C376.387 54.689 374.035 58.1321 369.356 65.388C367.278 68.6095 365.267 72.0991 363.53 75.4945C360.526 81.369 358.915 85.7294 358.745 88.4429C358.663 89.7538 358.697 89.9976 359.113 91.0722C359.654 92.4659 359.906 92.8598 361.239 94.3929C361.789 95.0256 362.533 95.913 362.892 96.3649C363.251 96.8168 363.728 97.3344 363.952 97.5152C364.59 98.0288 367.428 99.405 367.849 99.405C368.057 99.405 368.939 99.2202 369.809 98.9942C372.163 98.3826 372.6 98.4177 379.735 99.7924C381.859 100.202 384.941 100.725 386.584 100.956C391.819 101.691 400.088 102.363 403.906 102.363H405.551L403.695 104.431C395.238 113.849 389.593 121.15 386.981 126.047C385.282 129.233 384.62 132.192 385.233 133.871C385.846 135.554 386.548 136.648 388.057 138.27C388.225 138.451 388.584 138.895 388.854 139.256C389.571 140.216 390.061 140.622 391.074 141.099C391.571 141.333 392.2 141.68 392.471 141.869C392.875 142.152 393.216 142.215 394.361 142.221C396.013 142.229 396.609 142.446 404.385 145.868C408.976 147.889 415.513 150.512 418.764 151.639L420.243 152.152L415.89 156.632C411.545 161.104 404.199 168.47 399.834 172.732C398.565 173.971 397.397 175.259 397.237 175.595C396.452 177.25 396.858 179.327 398.285 180.958C398.722 181.457 399.236 182.086 399.428 182.355C399.62 182.625 400.241 183.087 400.807 183.382C401.374 183.678 402.055 184.032 402.32 184.169C402.585 184.307 403.14 184.448 403.553 184.483C404.16 184.534 404.46 184.453 405.125 184.059C406.334 183.343 410.034 179.85 419.336 170.644C425.784 164.262 428.097 162.079 429.692 160.871C432.617 158.656 433.816 157.4 434.356 155.988C434.593 155.368 434.787 154.733 434.787 154.577C434.787 154.421 434.937 153.861 435.12 153.331C435.303 152.802 435.441 152.154 435.426 151.893C435.412 151.631 435.482 151.212 435.583 150.962C435.858 150.281 435.867 147.464 435.597 146.249C435.287 144.85 434.71 144.229 433.385 143.864C432.845 143.716 431.923 143.456 431.336 143.287C430.748 143.118 429.249 142.79 428.004 142.557C423.649 141.743 414.58 138.448 405.7 134.454C403.485 133.458 400.847 132.292 399.837 131.864L397.999 131.084L398.846 129.911C402.634 124.666 407.846 118.595 416.151 109.758C421.406 104.165 422.088 103.239 422.469 101.172C422.564 100.652 422.751 99.9677 422.884 99.6504C423.016 99.3332 423.083 98.9069 423.032 98.7033C422.981 98.4997 423.054 98.0578 423.194 97.7216C423.525 96.9295 423.538 94.4026 423.218 93.0803C422.947 91.9609 422.263 91.1968 421.514 91.1757C420.841 91.157 420.524 91.0788 419.689 90.725C418.978 90.4234 418.364 90.3955 410.219 90.2934C401.68 90.1864 397.396 90.0326 393.786 89.7035C388.428 89.2149 382.621 88.2784 378.174 87.1856C376.909 86.8745 375.152 86.4587 374.271 86.2613C373.39 86.0641 372.669 85.8613 372.669 85.8106C372.669 85.76 373.234 84.6752 373.925 83.4001C375.112 81.2091 375.731 80.1463 377.213 77.7632C377.561 77.2033 378.135 76.2789 378.489 75.709C379.555 73.9922 384.632 66.413 385.953 64.5664C387.954 61.7696 390.419 58.5823 395.161 52.6573C401.071 45.2748 401.59 44.4835 402.17 41.9807C402.316 41.3536 402.516 40.6881 402.616 40.5017C402.716 40.3154 402.852 39.6822 402.918 39.0947C402.985 38.5072 403.128 37.6938 403.235 37.287C403.52 36.2138 403.353 32.688 402.964 31.5489C402.566 30.3857 401.835 29.7872 400.516 29.5445C399.978 29.4456 399.205 29.2153 398.798 29.0329C396.227 27.8796 392.44 28.8454 374.641 35.1938C370.709 36.596 366.161 38.1555 364.534 38.6591C355.392 41.4892 346.628 43.8941 338.981 45.6703C336.368 46.2772 333.475 47.0757 331.75 47.6663C330.168 48.2078 328.759 48.6872 328.617 48.7317C328.329 48.8226 328.278 48.6098 327.483 43.9425C326.618 38.8673 326.167 33.9067 325.668 23.976C325.17 14.0518 324.798 10.1604 323.84 4.83121C323.15 0.988604 322.945 0.613595 321.592 0.709894C321.076 0.746705 320.774 0.662402 320.379 0.371039C319.741 -0.100104 319.044 -0.122125 318.211 0.302512Z" fill="black"/>
</svg>
