<svg width="24" height="24" viewBox="0 0 24 24" fill="none" xmlns="http://www.w3.org/2000/svg">
<rect x="3" y="18.4854" width="12" height="3" rx="1.5" transform="rotate(-45 3 18.4854)" fill="#969696"/>
<path d="M15.5 3C15.7818 3 16.0587 3.02065 16.3291 3.06152L13.1807 6.28516C12.7947 6.68013 12.8014 7.31323 13.1963 7.69922L16.3662 10.7959C16.7612 11.1818 17.3943 11.1743 17.7803 10.7793L20.9189 7.56543C20.971 7.86928 21 8.18131 21 8.5C21 11.5376 18.5376 14 15.5 14C12.4624 14 10 11.5376 10 8.5C10 5.46243 12.4624 3 15.5 3Z" fill="#969696"/>
</svg>
