<svg width="24" height="24" viewBox="0 0 24 24" fill="none" xmlns="http://www.w3.org/2000/svg">
<path d="M16.2 10H9.9C8.85 10 7.93733 10.3333 7.162 11C6.38667 11.6667 5.99933 12.5 6 13.5C6.00067 14.5 6.38833 15.3333 7.163 16C7.93767 16.6667 8.85 17 9.9 17H16C16.2833 17 16.521 17.096 16.713 17.288C16.905 17.48 17.0007 17.7173 17 18C16.9993 18.2827 16.9033 18.5203 16.712 18.713C16.5207 18.9057 16.2833 19.0013 16 19H9.9C8.28333 19 6.89567 18.475 5.737 17.425C4.57833 16.375 3.99933 15.0667 4 13.5C4.00067 11.9333 4.58 10.625 5.738 9.575C6.896 8.525 8.28333 8 9.9 8H16.2L14.3 6.1C14.1167 5.91667 14.025 5.68334 14.025 5.4C14.025 5.11667 14.1167 4.88334 14.3 4.7C14.4833 4.51667 14.7167 4.425 15 4.425C15.2833 4.425 15.5167 4.51667 15.7 4.7L19.3 8.3C19.4 8.4 19.471 8.50834 19.513 8.625C19.555 8.74167 19.5757 8.86667 19.575 9C19.5743 9.13334 19.5537 9.25834 19.513 9.375C19.4723 9.49167 19.4013 9.6 19.3 9.7L15.7 13.3C15.5167 13.4833 15.2833 13.575 15 13.575C14.7167 13.575 14.4833 13.4833 14.3 13.3C14.1167 13.1167 14.025 12.8833 14.025 12.6C14.025 12.3167 14.1167 12.0833 14.3 11.9L16.2 10Z" fill="#2F2F2F"/>
</svg>
