<svg width="24" height="24" viewBox="0 0 24 24" fill="none" xmlns="http://www.w3.org/2000/svg">
<path d="M23 5.50623L17.539 0L15.2636 2.75311L7.9822 3.67082C4.45983 6.88278 4.00475 9.17704 4.34148 10.5536C6.1618 13.8573 5.09994 15.9069 4.34148 16.5187C0.819119 21.5661 0.667426 21.5661 1.27421 22.4838C3.09455 24.6863 5.25165 24.0133 6.16182 23.4015L14.8085 14.6833C16.9929 12.4808 17.2356 13.1538 17.0839 13.7656L12.0779 19.2718C13.5342 20.7401 15.4152 19.5777 16.1737 18.8129L19.3593 15.601C21.1797 14.4997 21.3314 9.9418 21.1797 7.80049L23 5.50623Z" fill="#C6C7C7"/>
</svg>
