<svg width="24" height="24" viewBox="0 0 24 24" fill="none" xmlns="http://www.w3.org/2000/svg">
<path d="M7.8 9.99999H14.1C15.15 9.99999 16.0627 10.3333 16.838 11C17.6133 11.6667 18.0007 12.5 18 13.5C17.9993 14.5 17.6117 15.3333 16.837 16C16.0623 16.6667 15.15 17 14.1 17H8C7.71667 17 7.479 17.096 7.287 17.288C7.095 17.48 6.99933 17.7173 7 18C7.00067 18.2827 7.09667 18.5203 7.288 18.713C7.47933 18.9057 7.71667 19.0013 8 19H14.1C15.7167 19 17.1043 18.475 18.263 17.425C19.4217 16.375 20.0007 15.0667 20 13.5C19.9993 11.9333 19.42 10.625 18.262 9.57499C17.104 8.52499 15.7167 7.99999 14.1 7.99999H7.8L9.7 6.09999C9.88333 5.91665 9.975 5.68332 9.975 5.39999C9.975 5.11665 9.88333 4.88332 9.7 4.69999C9.51667 4.51665 9.28333 4.42499 9 4.42499C8.71667 4.42499 8.48333 4.51665 8.3 4.69999L4.7 8.29999C4.6 8.39999 4.529 8.50832 4.487 8.62499C4.445 8.74165 4.42433 8.86665 4.425 8.99999C4.42566 9.13332 4.44633 9.25832 4.487 9.37499C4.52767 9.49165 4.59867 9.59999 4.7 9.69999L8.3 13.3C8.48333 13.4833 8.71667 13.575 9 13.575C9.28333 13.575 9.51667 13.4833 9.7 13.3C9.88333 13.1167 9.975 12.8833 9.975 12.6C9.975 12.3167 9.88333 12.0833 9.7 11.9L7.8 9.99999Z" fill="#969696"/>
</svg>
